<?xml version="1.0" encoding="UTF-8"?>
<svg id="katman_1" xmlns="http://www.w3.org/2000/svg" version="1.1" viewBox="0 0 804.4 199.6">
  <!-- Generator: Adobe Illustrator 29.1.0, SVG Export Plug-In . SVG Version: 2.1.0 Build 142)  -->
  <defs>
    <style>
      .st0 {
        fill: #262626;
      }

      .st1 {
        fill-rule: evenodd;
      }
    </style>
  </defs>
  <path class="st1" d="M0,49L85.5,0l85.9,49v50.8l-42.1,24.3v48.6l-43.8,26.9L0,149.7V49ZM85.5,149.7l-42.9-25.6v-49.5l42.9-25.6,43.8,25.6-43.8,25.2v49.9Z"/>
  <path class="st0" d="M251.2,158.1c-24.7,0-44.8-20.1-44.8-44.8s20.1-44.8,44.8-44.8,19.4,3.2,27.3,9.3c4.9,3.9,6,10.9,2.1,15.9-3.9,4.9-11,5.8-15.9,2.1-3.9-3.2-8.6-4.7-13.5-4.7-12.3,0-22.2,10-22.2,22.2s10,22.2,22.2,22.2,9.6-1.6,13.5-4.6c4.9-3.9,12.1-3,15.8,2.1,3.9,4.9,3,12.1-2.1,15.8-7.9,6.1-17.2,9.3-27.1,9.3Z"/>
  <path class="st0" d="M337.4,68.5c-24.7,0-44.8,20.1-44.8,44.8s20.1,44.8,44.8,44.8,44.8-20.1,44.8-44.8-20.1-44.8-44.8-44.8ZM337.4,91c12.3,0,22.2,10,22.2,22.2s-10,22.2-22.2,22.2-22.2-10-22.2-22.2,10-22.2,22.2-22.2Z"/>
  <path class="st0" d="M390.1,113.3c0,24.7,20,44.6,44.6,44.6s17.5-2.6,24.5-7.4c1.8,3.7,5.4,6.1,9.6,6.1s10.5-4.7,10.5-10.5V52.4c0-5.6-5.1-10.7-11.2-10.7s-11.2,5.1-11.2,11.2v21.5c-6.7-3.7-14.2-6-22.2-6-24.7,0-44.6,20.1-44.6,44.8ZM412.5,113.3c0-12.3,10-22.2,22.2-22.2s22.2,10,22.2,22.2-10,22.1-22.2,22.1-22.2-9.8-22.2-22.1Z"/>
  <path class="st0" d="M561.5,119.6c6.5,0,12.4.4,16.1-4.9,3.9-6.8.5-17-4.6-25.4-8.4-13-22.1-20.8-37.3-20.8-32.6,0-53.9,34.7-39.9,63.2,12.1,25.9,46.9,34.7,72.3,17.7,4.6-3,5.6-9.5,2.5-14.2-3.2-4.9-9.5-6.3-14.2-2.8-15.6,10-38.7,3.9-43.2-12.8h48.3ZM513.6,103.5c2.1-9.3,11.2-15.9,22.2-15.9s20,6.7,21.9,15.9h-44.1Z"/>
  <path class="st0" d="M602.3,156.7c-6.3,0-11.6-5.1-11.6-11.4V51.7c0-6.3,5.3-11.4,11.6-11.4s11.4,5.1,11.4,11.4v93.6c0,6.3-5.3,11.4-11.4,11.4Z"/>
  <path class="st0" d="M664.1,158.1c-21,0-38.2-17.2-38.2-38.2v-39.4c0-6.3,5.1-11.4,11.2-11.4s11.4,5.1,11.4,11.4v39.4c0,8.6,7,15.6,15.6,15.6s15.6-7,15.6-15.6v-39.4c0-6.3,5.1-11.4,11.2-11.4s11.4,5.1,11.4,11.4v39.4c0,21-17.2,38.2-38.2,38.2Z"/>
  <path class="st0" d="M793.4,69c-4.6,0-8.4,2.8-10.2,6.7-7-4.6-15.6-7.4-24.7-7.4-25.4,0-45.9,20.7-45.9,45.9s20.5,45.9,45.9,45.9,16.8-2.5,23.6-6.7c-2.1,13.5-16.1,21.9-29.6,15.9-5.4-2.6-11.9-.4-14.5,5.3-2.6,5.6-.2,11.9,5.3,14.5,28.9,13.1,61.1-7.7,61.1-38.9v-70.2c0-6.1-4.9-11-11-11ZM758.6,136.5c-12.4,0-22.4-10-22.4-22.4s10-22.4,22.4-22.4,22.4,10,22.4,22.4-10,22.4-22.4,22.4Z"/>
</svg>