<?xml version="1.0" encoding="utf-8"?>
<!-- Generator: Adobe Illustrator 27.8.0, SVG Export Plug-In . SVG Version: 6.00 Build 0)  -->
<svg version="1.0" id="katman_1" xmlns="http://www.w3.org/2000/svg" xmlns:xlink="http://www.w3.org/1999/xlink" x="0px" y="0px"
	 viewBox="0 0 841.89 595.28" style="enable-background:new 0 0 841.89 595.28;" xml:space="preserve">
<style type="text/css">
	.st0{fill-rule:evenodd;clip-rule:evenodd;fill:#FFFFFF;filter:url(#Adobe_OpacityMaskFilter);}
	.st1{mask:url(#shulexBlack_svg__a_00000023972428115792268550000017082896120979719054_);}
	.st2{fill-rule:evenodd;clip-rule:evenodd;fill:#2E2E2F;}
	.st3{fill:#2E2E2F;}
</style>
<defs>
	<filter id="Adobe_OpacityMaskFilter" filterUnits="userSpaceOnUse" x="144.02" y="211.89" width="136.84" height="136.84">
		<feColorMatrix  type="matrix" values="1 0 0 0 0  0 1 0 0 0  0 0 1 0 0  0 0 0 1 0"/>
	</filter>
</defs>
<mask maskUnits="userSpaceOnUse" x="144.02" y="211.89" width="136.84" height="136.84" id="shulexBlack_svg__a_00000023972428115792268550000017082896120979719054_">
	<path class="st0" d="M280.86,211.89H144.02v68.42h68.42v68.42h68.42V211.89z"/>
</mask>
<g class="st1">
	<path class="st2" d="M144.02,280.31c0-37.79,30.63-68.42,68.42-68.42s68.42,30.63,68.42,68.42s-30.63,68.42-68.42,68.42l0-0.04
		l0.01-0.74l0.03-19.8l-0.01-13.57c1.68-0.2,3.26-0.35,4.73-0.46l0.91-0.07c21.87-1.89,26.37-15.37,27.56-22.67
		c0,0,0.62-3.35,0.11-5.18c-0.32-1.15-1.64-3.9-2.42-4.83l-0.27-0.48l-0.15-0.3c-0.28-0.52-0.46-1.09-0.53-1.68
		c-1.34-19.81-16.08-24.54-25.05-26.19l-0.74-0.13c-0.12-0.02-0.24-0.04-0.36-0.06l-0.7-0.1c-0.11-0.01-0.23-0.03-0.34-0.04
		l-0.66-0.08c-0.11-0.01-0.21-0.02-0.32-0.03l-0.62-0.06l-0.58-0.04l-0.54-0.03l-0.51-0.02l-0.47-0.01l-0.62,0l-0.52,0l-0.41,0.02
		c-1.27,0-1.87-2.27-2.22-5.01l-0.08-0.7l-0.07-0.71l-0.03-0.36l-0.09-1.08l-0.21-2.77l-0.08-0.94l-0.06-0.58l-0.06-0.53
		c-0.12-0.93-0.28-1.6-0.51-1.85c-0.21-0.23-0.68-0.35-1.34-0.34l-0.29,0.01c-0.11,0.01-0.21,0.01-0.32,0.03l-0.34,0.04
		c-0.25,0.04-0.49,0.09-0.74,0.15l-0.4,0.1c-0.07,0.02-0.14,0.04-0.21,0.06l-0.42,0.13l-0.44,0.14l-0.46,0.17l-0.47,0.18
		c-0.08,0.03-0.16,0.07-0.24,0.1l-0.49,0.22c-0.71,0.33-1.4,0.69-2.08,1.09l-0.55,0.33c-0.98,0.62-1.92,1.3-2.81,2.03l-0.57,0.49
		c-2.04,1.78-3.86,3.81-5.42,6.03l-0.43,0.62l-0.44,0.64l-0.66,0.99l-0.67,1.03l-2.36,3.69l-1.01,1.55l-0.79,1.18l-0.82,1.2
		l-0.57,0.81l-0.58,0.81l-0.6,0.81l-0.61,0.81c-3.32,4.35-8.61,10.22-14.98,13.32C156.16,280.05,144.02,280.31,144.02,280.31z
		 M232.97,277.45c0,0.22-0.01,0.44-0.02,0.65c-0.12-1.34-0.7-2.36-1.4-2.36c-0.79,0-1.43,1.28-1.43,2.85s0.64,2.85,1.43,2.85
		c0.25-0.01,0.48-0.12,0.65-0.31c-0.46,0.9-1.09,1.45-1.79,1.45c-1.42,0-2.57-2.3-2.57-5.13c0-2.84,1.15-5.13,2.57-5.13
		C231.82,272.33,232.97,274.62,232.97,277.45L232.97,277.45z"/>
</g>
<path class="st2" d="M144.02,382.93c37.41,0,67.81-30.02,68.41-67.28l0.01-1.13c-19.79,0-35.03,17.4-51.16,28.85
	c-4.53,3.22-10.2,5.36-17.25,5.36c-18.89,0-34.21-15.32-34.21-34.21c0-18.89,15.32-34.21,34.21-34.21V246.1
	c-37.79,0-68.42,30.63-68.42,68.42S106.24,382.93,144.02,382.93z"/>
<path class="st3" d="M491.08,252.51l11.37,0.29c1.99,0.05,3.61,1.62,3.72,3.61l0,0.21v55.85l0.01,0.51
	c0.27,9.32,7.87,16.79,17.2,16.79c9.38,0,17.01-7.54,17.2-16.92l0-0.38l0.01-56.15c0.05-2.03,1.67-3.66,3.7-3.73h0.22l7.64,0.19
	c1.99,0.05,3.61,1.62,3.72,3.61l0.01,0.21v55.85l-0.01,0.62c-0.32,17.58-14.47,31.77-31.97,32.05h-0.53
	c-17.78,0-32.22-14.34-32.5-32.14l0-0.54v-59.63l0-0.15l0.01-0.06c0.02-0.06,0.07-0.1,0.12-0.12
	C491.02,252.52,491.08,252.51,491.08,252.51z M580.75,252.51c2.04,0,3.7,1.6,3.82,3.61l0,0.21v73.07h28.68c2.04,0,3.7,1.6,3.82,3.61
	l0,0.21v7.72c0,2.03-1.58,3.71-3.61,3.83l-0.21,0H573.1c-2.03,0-3.71-1.59-3.82-3.61l0-0.21v-84.62c0-2.04,1.59-3.71,3.6-3.83
	l0.22,0L580.75,252.51L580.75,252.51z M713.05,252.51c1.96,0,3.61,1.5,3.8,3.45l0.08,0.74l0.07,0.65l0.07,0.57l0.07,0.49
	c0.42,2.6,1.05,5.15,1.88,7.63c2.29,6.9,6.12,13.19,11.19,18.39l0.55,0.56l2.95,2.93l2.96-2.93l0.63-0.63
	c6.89-7.12,11.43-16.18,12.99-25.96l0.07-0.48l0.04-0.27l0.07-0.61l0.07-0.69l0.04-0.38c0.18-1.88,1.71-3.34,3.59-3.45l0.22,0h7.81
	c2.12,0,3.83,1.72,3.83,3.84c0,0.07,0,0.15-0.01,0.22l-0.06,0.83l-0.05,0.66l-0.02,0.18c-1.41,14.52-7.65,28.16-17.71,38.73
	l-0.54,0.56l-2.1,2.11l-11.84,11.7l-4.33,4.29l-0.63,0.63c-5.59,5.79-9.46,13.01-11.19,20.87l-0.11,0.53l-0.11,0.6l-0.11,0.68
	l-0.11,0.75l-0.11,0.82l-0.11,0.9c-0.22,1.84-1.73,3.27-3.58,3.37l-0.21,0h-7.75c-2.11,0-3.82-1.72-3.82-3.83
	c0-0.11,0.01-0.22,0.01-0.33l0.07-0.84l0.08-0.77l0.07-0.68l0.08-0.6l0.07-0.53c1.96-13.24,8.07-25.52,17.44-35.07l0.53-0.53
	l1.99-1.97l-1.43-1.41l-0.69-0.7c-10.16-10.43-16.55-23.95-18.14-38.42l-0.06-0.61l-0.06-0.7l-0.09-1.21l-0.01-0.24
	c0-2.04,1.6-3.71,3.61-3.83l0.22,0L713.05,252.51L713.05,252.51z M347.95,278.87c0,7.15,7.62,12.97,17.14,13.17l0.54,0.01
	c19.54,0,33.46,11.8,33.46,26.36c0,14.41-13.65,26.13-32.88,26.36l-0.59,0c-16.02,0-28.27-7.94-32.16-18.82
	c-0.33-1-0.58-2.02-0.75-3.05c-0.36-2.08,1.03-4.07,3.12-4.43c0.22-0.04,0.43-0.06,0.65-0.06h8.46c1.69,0,3.18,1.11,3.66,2.74
	c0.58,1.94,1.28,3.39,2.1,4.35c3.14,3.66,8.65,6.09,14.92,6.09c9.77,0,17.69-5.9,17.69-13.18c0-7.15-7.63-12.97-17.15-13.17
	l-0.54-0.01c-19.53,0-33.46-11.8-33.46-26.36c0-14.41,13.65-26.13,32.88-26.36l0.58,0c17.16,0,29.98,9.1,32.86,21.18
	c0.05,0.2,0.09,0.43,0.14,0.67c0.38,2.08-1,4.08-3.09,4.45c-0.22,0.04-0.45,0.06-0.68,0.06h-8.39c-1.74,0-3.26-1.18-3.7-2.86
	c-0.18-0.79-0.47-1.56-0.85-2.27c-2.69-4.73-8.97-8.04-16.29-8.04C355.87,265.69,347.95,271.6,347.95,278.87L347.95,278.87z
	 M423.96,252.51c2.04,0,3.71,1.6,3.82,3.61l0,0.21v34.62h34.42v-34.62c0-2.04,1.6-3.71,3.6-3.83h7.87c2.04,0,3.7,1.59,3.81,3.61
	l0.01,0.21v84.61c0,2.03-1.58,3.71-3.61,3.83l-0.21,0h-7.65c-2.03,0-3.7-1.59-3.81-3.61l-0.01-0.21v-34.62h-34.42v34.62
	c0,2.03-1.58,3.71-3.6,3.83l-0.21,0h-7.65c-2.03,0-3.71-1.59-3.82-3.61l0-0.21v-84.62c0-2.04,1.6-3.71,3.6-3.83h0.22H423.96
	L423.96,252.51z M685.92,252.51c2.04,0,3.71,1.6,3.82,3.61l0,0.21v7.72c0,2.03-1.58,3.71-3.6,3.82l-0.22,0h-42.07v23.07h38.25
	c2.04,0,3.7,1.6,3.82,3.61l0,0.21v7.72c0,2.03-1.58,3.71-3.6,3.82l-0.22,0h-38.25v23.07h42.07c2.04,0,3.71,1.59,3.82,3.61l0,0.21
	v7.72c0,2.03-1.58,3.71-3.6,3.83l-0.22,0h-53.54c-2.03,0-3.71-1.59-3.82-3.61l0-0.21v-84.62c0-2.04,1.59-3.71,3.61-3.83l0.21,0
	L685.92,252.51L685.92,252.51z"/>
<path class="st3" d="M733.72,311.25l4.34,4.29c6.33,6.3,10.57,14.38,12.16,23.16c0.61,3.35,3.29,5.98,6.7,5.98h3.56
	c3.11,0,5.67-2.62,5.3-5.71c-1.64-13.85-7.8-26.78-17.53-36.77l-0.7-0.7l-1.98-1.96C745.57,299.55,733.72,311.25,733.72,311.25z"/>
</svg>
