<?xml version="1.0" encoding="UTF-8"?>
<svg id="Camada_1" data-name="Camada 1" xmlns="http://www.w3.org/2000/svg" viewBox="0 0 159.09 12.94">
  <defs>
    <style>
      .cls-1 {
        fill: #9d9d9c;
      }

      .cls-2 {
        fill: #27348b;
      }
    </style>
  </defs>
  <path class="cls-2" d="M3.04,2.1H0V0H8.52V2.1h-3.04v7.91H3.04V2.1Z"/>
  <path class="cls-2" d="M11.62,2.63c2.13,0,3.33,1.48,3.33,3.48,0,.24-.06,.76-.06,.76h-4.55c.18,.88,.91,1.29,1.68,1.29,1.04,0,1.99-.73,1.99-.73l.9,1.69s-1.16,1.05-3.08,1.05c-2.57,0-3.96-1.86-3.96-3.78,0-2.11,1.43-3.76,3.75-3.76Zm.9,2.85c0-.55-.38-1.04-.95-1.04-.7,0-1.04,.5-1.16,1.04h2.11Z"/>
  <path class="cls-2" d="M19.47,2.63c1.96,0,2.87,1.09,2.87,1.09l-1.02,1.62s-.7-.7-1.69-.7c-1.15,0-1.72,.87-1.72,1.72s.59,1.79,1.81,1.79c1.01,0,1.97-.87,1.97-.87l.88,1.69s-1.08,1.19-3.09,1.19c-2.57,0-4.02-1.79-4.02-3.78s1.43-3.76,4.02-3.76Z"/>
  <path class="cls-2" d="M23.41,0h2.42V3.16c0,.36-.03,.62-.03,.62h.03c.41-.71,1.25-1.15,2.2-1.15,1.46,0,2.59,.67,2.59,2.7v4.67h-2.42V5.78c0-.67-.27-.95-.8-.95-.74,0-1.23,.43-1.44,1.06-.1,.28-.13,.59-.13,.92v3.19h-2.42V0Z"/>
  <path class="cls-2" d="M32.83,0h2.66l1.46,4.23c.22,.64,.5,1.65,.5,1.65h.03s.28-1.01,.5-1.65l1.46-4.23h2.66l.81,10h-2.45l-.31-4.51c-.06-.76,0-1.68,0-1.68h-.03s-.34,1.05-.56,1.68l-1.05,2.9h-2.1l-1.05-2.9c-.22-.63-.56-1.68-.56-1.68h-.03s.06,.92,0,1.68l-.31,4.51h-2.46l.83-10Z"/>
  <path class="cls-2" d="M48.02,5.51h.1v-.13c0-.6-.46-.8-1.06-.8-.91,0-1.94,.69-1.94,.69l-.84-1.71s1.25-.94,3.02-.94c2.03,0,3.25,1.11,3.25,2.94v4.44h-2.21v-.43c0-.24,.03-.45,.03-.45h-.03s-.53,1.05-2.04,1.05c-1.34,0-2.45-.9-2.45-2.32,0-2.1,3.06-2.34,4.18-2.34Zm-1.06,2.81c.63,0,1.19-.69,1.19-1.27v-.15h-.22c-.77,0-1.65,.22-1.65,.83,0,.34,.21,.6,.69,.6Z"/>
  <path class="cls-2" d="M51.93,2.8h2.32v.63c0,.24-.03,.45-.03,.45h.03c.34-.56,1.02-1.25,2.29-1.25,1.46,0,2.59,.67,2.59,2.7v4.67h-2.42V5.78c0-.67-.27-.95-.8-.95-.76,0-1.22,.42-1.43,1.04-.1,.28-.14,.6-.14,.95v3.19h-2.42V2.8Z"/>
  <path class="cls-2" d="M64.18,5.51h.1v-.13c0-.6-.46-.8-1.06-.8-.91,0-1.94,.69-1.94,.69l-.84-1.71s1.25-.94,3.02-.94c2.03,0,3.25,1.11,3.25,2.94v4.44h-2.21v-.43c0-.24,.03-.45,.03-.45h-.03s-.53,1.05-2.04,1.05c-1.34,0-2.45-.9-2.45-2.32,0-2.1,3.06-2.34,4.18-2.34Zm-1.06,2.81c.63,0,1.19-.69,1.19-1.27v-.15h-.22c-.77,0-1.65,.22-1.65,.83,0,.34,.21,.6,.69,.6Z"/>
  <path class="cls-2" d="M71.02,10.93c.87,0,1.67-.32,1.67-1.39v-.24c0-.08,.01-.27,.01-.27h-.03c-.42,.5-.97,.76-1.81,.76-2.17,0-3.25-1.78-3.25-3.62s1.05-3.54,3.23-3.54c1.32,0,1.96,.7,1.96,.7h.04s-.01-.08-.01-.17v-.36h2.27v6.55c0,2.63-2.1,3.6-4.07,3.6-.97,0-2.03-.28-2.73-.64l.69-1.83s.9,.46,2.03,.46Zm1.72-4.73c0-1.27-.67-1.55-1.4-1.55-.85,0-1.29,.62-1.29,1.44,0,.9,.42,1.69,1.39,1.69,.63,0,1.3-.32,1.3-1.58Z"/>
  <path class="cls-2" d="M79.85,2.63c2.13,0,3.33,1.48,3.33,3.48,0,.24-.06,.76-.06,.76h-4.55c.18,.88,.91,1.29,1.68,1.29,1.04,0,1.99-.73,1.99-.73l.9,1.69s-1.16,1.05-3.08,1.05c-2.57,0-3.96-1.86-3.96-3.78,0-2.11,1.43-3.76,3.75-3.76Zm.9,2.85c0-.55-.38-1.04-.95-1.04-.7,0-1.04,.5-1.16,1.04h2.11Z"/>
  <path class="cls-2" d="M84.21,2.8h2.32v1.22c0,.24-.03,.45-.03,.45h.03c.31-.98,1.22-1.79,2.29-1.79,.14,0,.28,.03,.28,.03v2.38s-.2-.04-.49-.04c-.57,0-1.51,.18-1.86,1.26-.08,.27-.13,.59-.13,.98v2.73h-2.42V2.8Z"/>
  <path class="cls-1" d="M89.2,9.19h1.01L93.53,.17h1.08l3.32,9.02h1.01v.81h-3.15v-.81h1.13l-.94-2.53h-3.83l-.92,2.53h1.13v.81h-3.15v-.81Zm6.51-3.36l-1.47-4.03c-.06-.17-.07-.32-.11-.43l-.04-.2h-.04c0,.07-.01,.13-.03,.2-.04,.11-.06,.27-.11,.43l-1.5,4.03h3.3Z"/>
  <path class="cls-1" d="M104.27,0c1.19,0,3.67,.45,3.67,1.96v1.05h-.94v-.78c0-.95-1.68-1.34-2.69-1.34-2.28,0-4,1.72-4,4.11s1.72,4.3,4.06,4.3c.8,0,2.78-.29,2.78-1.34v-.77h.94v1.05c0,1.41-2.39,1.94-3.75,1.94-2.94,0-5.05-2.29-5.05-5.15s2.18-5.02,4.98-5.02Z"/>
  <path class="cls-1" d="M108.78,9.19h1.01L113.11,.17h1.08l3.32,9.02h1.01v.81h-3.15v-.81h1.13l-.94-2.53h-3.83l-.92,2.53h1.13v.81h-3.15v-.81Zm6.51-3.36l-1.47-4.03c-.06-.17-.07-.32-.11-.43l-.04-.2h-.04c0,.07-.01,.13-.03,.2-.04,.11-.06,.27-.11,.43l-1.5,4.03h3.3Z"/>
  <path class="cls-1" d="M119.13,9.19h1.29V.98h-1.29V.17h4.16c.84,0,1.44,.04,2.1,.25,1.86,.6,3.04,2.29,3.04,4.67s-1.19,4.07-3.16,4.67c-.62,.21-1.25,.24-1.97,.24h-4.16v-.81Zm4.07-.03c.66,0,1.2-.06,1.75-.24,1.51-.49,2.45-1.83,2.45-3.83s-.91-3.34-2.38-3.86c-.57-.21-1.13-.22-1.82-.22h-1.8V9.17h1.8Z"/>
  <path class="cls-1" d="M129.71,9.19h1.29V.98h-1.29V.17h6.95V2.21h-.9V1.01h-3.79v3.62h3.72v.84h-3.72v3.69h4.06v-1.27h.88v2.11h-7.21v-.81Z"/>
  <path class="cls-1" d="M137.93,9.19h1.29l.66-8.21h-1.3V.17h2.36l2.85,6.44c.07,.15,.1,.31,.14,.41l.06,.17h.03c.01-.06,.03-.11,.06-.17,.04-.1,.08-.25,.15-.41l2.85-6.44h2.35V.98h-1.29l.64,8.21h1.29v.81h-3.51v-.81h1.26l-.53-6.79c0-.13,0-.29,.01-.45,.01-.08,.01-.17,.01-.25h-.03l-.07,.24c-.04,.15-.08,.29-.14,.42l-2.62,5.76h-.91l-2.63-5.76c-.04-.13-.1-.27-.14-.42-.03-.08-.04-.17-.06-.24h-.04c0,.08,0,.17,.01,.25,.01,.15,.03,.32,.01,.45l-.53,6.79h1.26v.81h-3.51v-.81Z"/>
  <path class="cls-1" d="M152.97,9.19h1.29v-3.41l-2.9-4.8h-.97V.17h3.11V.98h-1.09l2.13,3.58,.14,.25s.04,.08,.06,.13h.03s.03-.08,.06-.13l.14-.25,2.14-3.58h-1.09V.17h3.09V.98h-.97l-2.9,4.8v3.41h1.29v.81h-3.55v-.81Z"/>
</svg>