<?xml version="1.0" encoding="utf-8"?>
<!-- Generator: Adobe Illustrator 28.5.0, SVG Export Plug-In . SVG Version: 9.03 Build 54727)  -->
<svg version="1.0" id="katman_1" xmlns="http://www.w3.org/2000/svg" xmlns:xlink="http://www.w3.org/1999/xlink" x="0px" y="0px"
	 viewBox="0 0 164 29" style="enable-background:new 0 0 164 29;" xml:space="preserve">
<style type="text/css">
	.st0{fill-rule:evenodd;clip-rule:evenodd;}
</style>
<g>
	<path class="st0" d="M26,13.6L26,13.6L26,13.6C26,13.6,26,13.6,26,13.6z M26,13.3v0.3c-1,1.2-2.3,2-3.7,2.4c-1.5-1.2-3-2.3-4.7-3.4
		c-0.5-0.3-0.9-0.6-1.5-1c-0.9-0.6-2-1.3-3.1-2.1c0-0.1,0-0.1,0-0.2c0-0.1,0-0.2,0-0.3C13,5,16.2,2,20.4,2c2.2,0,4.2,1,5.6,2.6v0.3
		l-2.5,2.1h-0.3c-0.7-0.8-1.8-1.3-2.9-1.3c-0.9,0-1.7,0.3-2.3,1c-0.6,0.6-0.9,1.5-0.9,2.4c0,0.9,0.3,1.7,0.9,2.4
		c0.6,0.6,1.4,1,2.3,1c1.1,0,2.1-0.5,2.9-1.3h0.3L26,13.3z M14.5,13.5C14.5,13.5,14.5,13.5,14.5,13.5L14.5,13.5L14.5,13.5z M18.5,16
		c-1.6-0.3-3-1.2-4-2.5c0.1,0.1,0.2,0.1,0.3,0.2c0.2,0.1,0.3,0.2,0.5,0.3C16.4,14.7,17.4,15.4,18.5,16z"/>
	<path class="st0" d="M40.4,12.4l0.6,2.7l-0.1,0.3c-0.5,0.4-1.1,0.6-1.8,0.6c-1.7,0-2.6-0.4-3.8-2.2c0,0,0-0.1-0.1-0.1
		c-0.6-0.9-1.7-2.8-2.7-2.8h-0.4v4.8H28V2h6.4c3.7,0,5.7,1.8,5.7,4.6c0,1.7-1,3.2-2.6,3.8c0.4,0.3,0.8,0.7,1.1,1.1c0,0,0,0,0,0.1
		c0.3,0.4,0.5,0.9,1,0.9c0.2,0,0.4,0,0.6-0.1L40.4,12.4z M35.7,6.8c0,0.4-0.1,0.7-0.4,1c-0.3,0.3-0.7,0.4-1.1,0.4h-2V5.4h2
		c0.4,0,0.8,0.1,1.1,0.4C35.6,6,35.7,6.4,35.7,6.8z"/>
	<path class="st0" d="M48.5,2C52.8,2,56,5,56,9c0,4-3.2,7-7.5,7S41,13,41,9C41,5,44.2,2,48.5,2z M50.2,12c1-0.6,1.7-1.7,1.6-3
		c0-1.2-0.6-2.3-1.6-3c-1-0.6-2.3-0.6-3.4,0c-1,0.6-1.7,1.7-1.6,3c0,1.2,0.6,2.3,1.6,3C47.8,12.6,49.2,12.6,50.2,12z"/>
</g>
<path d="M75.8,2H72l-2.3,7.8L67.2,2h-2.4l-2.5,7.7L60,2h-3.8L56,2.3L60.9,16h2.4L66,8.4l2.8,7.6h2.4L76,2.3L75.8,2z"/>
<path class="st0" d="M84.1,2C88.4,2,91,4.8,91,9l0,0c0,4.2-2.6,7-6.9,7H78V2L84.1,2z M83.9,12.6c1.7,0,3-1.3,3-3.6v0v0v0
	c0-2.3-1.3-3.6-3-3.6h-2v7.1H83.9z"/>
<path d="M113.7,5.4h4.3V2h-13v3.4h4.3V16h4.3V5.4z"/>
<path class="st0" d="M125.2,2c3.6,0,5.5,1.8,5.5,4.7l0,0c0,1.8-1,3.1-2.5,3.8l2.8,5.2l-0.2,0.3h-4.1l-2.6-4.9h-1V16H119V2H125.2z
	 M126.5,6.9c0,0.4-0.1,0.8-0.4,1c-0.3,0.3-0.7,0.4-1,0.4h-1.9V5.4h1.9c0.4,0,0.8,0.1,1,0.4C126.4,6.1,126.5,6.5,126.5,6.9z"/>
<path d="M133,2h4v14h-4V2z"/>
<path d="M146.9,8.3l4.7-5.9L151.5,2H147l-3.9,5V2H139v14h4.2v-4.3l0.8-0.9l3.5,5.2h4.4l0.2-0.3L146.9,8.3z"/>
<path d="M163.9,5.4V2H154v14h10v-3.4h-6v-1.9h4.5V7.4H158V5.4L163.9,5.4z"/>
<path d="M98.2,16c3.1,0,5.8-1.5,5.8-4.3c0-3.1-2.7-3.8-5.1-4.5C97.9,7,97,6.7,97,6c0-0.5,0.5-0.8,1.4-0.8c1.4,0,2.6,0.8,3.2,1.4h0.3
	l2-2.3V4c-1.1-1.1-3.2-2-5.6-2c-3.3,0-5.6,1.7-5.6,4.2c0,2.7,2.5,3.8,4.7,4.4c1.4,0.4,2.3,0.4,2.3,1.2c0,0.5-0.7,0.8-1.7,0.8
	c-1.3,0-2.9-0.8-3.7-1.5H94l-2,2.4v0.3C93.3,15,95.5,16,98.2,16"/>
<path d="M28,29c-1-2.2-3-5.1-10.8-9.2c-3.6-2-9.7-5-15.2-10.8c0.5,2.1,3.1,6.7,14.1,12.4C19.1,23,24.3,24.6,28,29"/>
<path d="M27,25c-0.9-2.7-2.5-6.1-10.3-11.1C12.9,11.3,7.3,8.1,0,0c0.5,2.2,2.8,7.9,14.5,15.3C18.3,18,23.3,19.6,27,25"/>
</svg>
